<?xml version="1.0" ?><svg viewBox="0 0 32 32" xmlns="http://www.w3.org/2000/svg"><title/><g data-name="Layer 2" id="Layer_2"><path d="M16,28.4a3.17,3.17,0,0,1-3.19-3,.5.5,0,0,1,.5-.5h5.4a.5.5,0,0,1,.5.5A3.18,3.18,0,0,1,16,28.4Zm-2.11-2.48a2.26,2.26,0,0,0,4.24,0Z"/><path d="M18.88,8.66a.5.5,0,0,0-.36.94s2.38.93,2.38,3a.5.5,0,1,0,1,0C21.9,9.84,19,8.71,18.88,8.66Z"/><path d="M16.49,5.85V3.9a.5.5,0,0,0-.5-.5.51.51,0,0,0-.5.5V5.85c-1.81.21-8.09,1.39-8.09,7.57v12a.51.51,0,0,0,.49.5l5.58.08h5l5.59-.08a.51.51,0,0,0,.49-.5v-12C24.6,7.2,18.26,6.05,16.49,5.85ZM23.6,24.92,18.51,25h-5L8.4,24.92V13.42C8.4,7.29,15.49,6.83,16,6.8s7.59.48,7.59,6.62Z"/><path d="M25,25.91H7a.5.5,0,0,1-.5-.5.5.5,0,0,1,.5-.5H25a.5.5,0,0,1,.5.5A.5.5,0,0,1,25,25.91Z"/></g></svg>